# 3ds Max Wavefront OBJ Exporter v0.97b - (c)2007 guruware
# ì¬‚µ‚½ƒtƒ@ƒCƒ‹ : 09.08.2019 15:55:57

mtllib F_table_0023.mtl

#
# object Cylinder02
#

v  139.0063 0.0000 -0.0000
v  135.9687 0.0000 -28.9010
v  73.3611 500.0000 -15.5934
v  75.0000 500.0000 0.0000
v  126.9886 0.0000 -56.5390
v  68.5159 500.0000 -30.5052
v  112.4585 0.0000 -81.7058
v  60.6763 500.0000 -44.0839
v  93.0134 0.0000 -103.3018
v  50.1848 500.0000 -55.7359
v  69.5031 0.0000 -120.3830
v  37.5000 500.0000 -64.9519
v  42.9553 0.0000 -132.2029
v  23.1763 500.0000 -71.3292
v  14.5301 0.0000 -138.2448
v  7.8396 500.0000 -74.5891
v  -14.5301 0.0000 -138.2448
v  -7.8396 500.0000 -74.5891
v  -42.9553 0.0000 -132.2029
v  -23.1763 500.0000 -71.3292
v  -69.5031 0.0000 -120.3830
v  -37.5000 500.0000 -64.9519
v  -93.0134 0.0000 -103.3018
v  -50.1848 500.0000 -55.7359
v  -112.4585 0.0000 -81.7058
v  -60.6763 500.0000 -44.0839
v  -126.9886 0.0000 -56.5389
v  -68.5159 500.0000 -30.5052
v  -135.9686 0.0000 -28.9010
v  -73.3611 500.0000 -15.5934
v  -139.0063 0.0000 0.0000
v  -75.0000 500.0000 0.0000
v  -135.9686 0.0000 28.9010
v  -73.3611 500.0000 15.5934
v  -126.9886 0.0000 56.5389
v  -68.5159 500.0000 30.5053
v  -112.4584 0.0000 81.7058
v  -60.6763 500.0000 44.0839
v  -93.0133 0.0000 103.3018
v  -50.1848 500.0000 55.7359
v  -69.5031 0.0000 120.3830
v  -37.5000 500.0000 64.9519
v  -42.9553 0.0000 132.2028
v  -23.1763 500.0000 71.3292
v  -14.5302 0.0000 138.2448
v  -7.8397 500.0000 74.5891
v  14.5300 0.0000 138.2448
v  7.8396 500.0000 74.5892
v  42.9552 0.0000 132.2029
v  23.1762 500.0000 71.3293
v  69.5030 0.0000 120.3830
v  37.4999 500.0000 64.9520
v  93.0132 0.0000 103.3019
v  50.1847 500.0000 55.7359
v  112.4583 0.0000 81.7060
v  60.6762 500.0000 44.0840
v  126.9885 0.0000 56.5392
v  68.5159 500.0000 30.5054
v  135.9686 0.0000 28.9013
v  73.3610 500.0000 15.5935
# 60 vertices

vn 0.7710 -0.6369 0.0000
vn 0.7541 -0.6369 -0.1603
vn 0.6692 0.7294 -0.1422
vn 0.6841 0.7294 0.0000
vn 0.7043 -0.6369 -0.3136
vn 0.6250 0.7294 -0.2783
vn 0.6237 -0.6369 -0.4532
vn 0.5535 0.7294 -0.4021
vn 0.5159 -0.6369 -0.5729
vn 0.4578 0.7294 -0.5084
vn 0.3855 -0.6369 -0.6677
vn 0.3421 0.7294 -0.5925
vn 0.2382 -0.6369 -0.7332
vn 0.2114 0.7294 -0.6506
vn 0.0806 -0.6369 -0.7667
vn 0.0715 0.7294 -0.6804
vn -0.0806 -0.6369 -0.7667
vn -0.0715 0.7294 -0.6804
vn -0.2382 -0.6369 -0.7332
vn -0.2114 0.7294 -0.6506
vn -0.3855 -0.6369 -0.6677
vn -0.3421 0.7294 -0.5925
vn -0.5159 -0.6369 -0.5729
vn -0.4578 0.7294 -0.5084
vn -0.6237 -0.6369 -0.4532
vn -0.5535 0.7294 -0.4021
vn -0.7043 -0.6369 -0.3136
vn -0.6250 0.7294 -0.2783
vn -0.7541 -0.6369 -0.1603
vn -0.6692 0.7294 -0.1422
vn -0.7710 -0.6369 0.0000
vn -0.6841 0.7294 -0.0000
vn -0.7541 -0.6369 0.1603
vn -0.6692 0.7294 0.1422
vn -0.7043 -0.6369 0.3136
vn -0.6250 0.7294 0.2783
vn -0.6237 -0.6369 0.4532
vn -0.5535 0.7294 0.4021
vn -0.5159 -0.6369 0.5729
vn -0.4578 0.7294 0.5084
vn -0.3855 -0.6369 0.6677
vn -0.3421 0.7294 0.5925
vn -0.2382 -0.6369 0.7332
vn -0.2114 0.7294 0.6506
vn -0.0806 -0.6369 0.7667
vn -0.0715 0.7294 0.6804
vn 0.0806 -0.6369 0.7667
vn 0.0715 0.7294 0.6804
vn 0.2382 -0.6369 0.7332
vn 0.2114 0.7294 0.6506
vn 0.3855 -0.6369 0.6677
vn 0.3421 0.7294 0.5925
vn 0.5159 -0.6369 0.5729
vn 0.4578 0.7294 0.5084
vn 0.6237 -0.6369 0.4532
vn 0.5535 0.7294 0.4021
vn 0.7043 -0.6369 0.3136
vn 0.6250 0.7294 0.2783
vn 0.7541 -0.6369 0.1603
vn 0.6692 0.7294 0.1422
# 60 vertex normals

vt 0.7500 0.0000 1.0000
vt 0.7833 0.0000 1.0000
vt 0.7833 1.0000 1.0000
vt 0.7500 1.0000 1.0000
vt 0.8167 0.0000 1.0000
vt 0.8167 1.0000 1.0000
vt 0.8500 0.0000 1.0000
vt 0.8500 1.0000 1.0000
vt 0.8833 0.0000 1.0000
vt 0.8833 1.0000 1.0000
vt 0.9167 0.0000 1.0000
vt 0.9167 1.0000 1.0000
vt 0.9500 0.0000 1.0000
vt 0.9500 1.0000 1.0000
vt 0.9833 0.0000 1.0000
vt 0.9833 1.0000 1.0000
vt 1.0167 0.0000 1.0000
vt 1.0167 1.0000 1.0000
vt 0.0167 0.0000 1.0000
vt 0.0500 0.0000 1.0000
vt 0.0500 1.0000 1.0000
vt 0.0167 1.0000 1.0000
vt 0.0833 0.0000 1.0000
vt 0.0833 1.0000 1.0000
vt 0.1167 0.0000 1.0000
vt 0.1167 1.0000 1.0000
vt 0.1500 0.0000 1.0000
vt 0.1500 1.0000 1.0000
vt 0.1833 0.0000 1.0000
vt 0.1833 1.0000 1.0000
vt 0.2167 0.0000 1.0000
vt 0.2167 1.0000 1.0000
vt 0.2500 0.0000 1.0000
vt 0.2500 1.0000 1.0000
vt 0.2833 0.0000 1.0000
vt 0.2833 1.0000 1.0000
vt 0.3167 0.0000 1.0000
vt 0.3167 1.0000 1.0000
vt 0.3500 0.0000 1.0000
vt 0.3500 1.0000 1.0000
vt 0.3833 0.0000 1.0000
vt 0.3833 1.0000 1.0000
vt 0.4167 0.0000 1.0000
vt 0.4167 1.0000 1.0000
vt 0.4500 0.0000 1.0000
vt 0.4500 1.0000 1.0000
vt 0.4833 0.0000 1.0000
vt 0.4833 1.0000 1.0000
vt 0.5167 0.0000 1.0000
vt 0.5167 1.0000 1.0000
vt 0.5500 0.0000 1.0000
vt 0.5500 1.0000 1.0000
vt 0.5833 0.0000 1.0000
vt 0.5833 1.0000 1.0000
vt 0.6167 0.0000 1.0000
vt 0.6167 1.0000 1.0000
vt 0.6500 0.0000 1.0000
vt 0.6500 1.0000 1.0000
vt 0.6833 0.0000 1.0000
vt 0.6833 1.0000 1.0000
vt 0.7167 0.0000 1.0000
vt 0.7167 1.0000 1.0000
vt 0.7034 0.9568 -0.2500
vt 0.7939 0.9045 -0.2500
vt 0.8716 0.8346 -0.2500
vt 0.5000 1.0000 -0.2500
vt 0.9330 0.7500 -0.2500
vt 0.9755 0.6545 -0.2500
vt 0.9973 0.4477 -0.2500
vt 0.9973 0.5523 -0.2500
vt 0.9755 0.3455 -0.2500
vt 0.9330 0.2500 -0.2500
vt 0.7939 0.0955 -0.2500
vt 0.8716 0.1654 -0.2500
vt 0.2966 0.9568 -0.2500
vt 0.7034 0.0432 -0.2500
vt 0.6040 0.0109 -0.2500
vt 0.3960 0.0109 -0.2500
vt 0.5000 0.0000 -0.2500
vt 0.2966 0.0432 -0.2500
vt 0.2061 0.0955 -0.2500
vt 0.0670 0.2500 -0.2500
vt 0.1284 0.1654 -0.2500
vt 0.0245 0.3455 -0.2500
vt 0.0027 0.4477 -0.2500
vt 0.0245 0.6545 -0.2500
vt 0.0027 0.5523 -0.2500
vt 0.0670 0.7500 -0.2500
vt 0.1284 0.8346 -0.2500
vt 0.2061 0.9045 -0.2500
vt 0.3960 0.9891 -0.2500
vt 0.6040 0.9891 -0.2500
vt 0.3960 0.9891 0.2500
vt 0.2966 0.9568 0.2500
vt 0.2061 0.9045 0.2500
vt 0.6040 0.9891 0.2500
vt 0.1284 0.8346 0.2500
vt 0.0670 0.7500 0.2500
vt 0.0027 0.5523 0.2500
vt 0.0245 0.6545 0.2500
vt 0.0027 0.4477 0.2500
vt 0.0245 0.3455 0.2500
vt 0.1284 0.1654 0.2500
vt 0.0670 0.2500 0.2500
vt 0.7939 0.9045 0.2500
vt 0.2061 0.0955 0.2500
vt 0.2966 0.0432 0.2500
vt 0.5000 0.0000 0.2500
vt 0.3960 0.0109 0.2500
vt 0.6040 0.0109 0.2500
vt 0.7034 0.0432 0.2500
vt 0.8716 0.1654 0.2500
vt 0.7939 0.0955 0.2500
vt 0.9330 0.2500 0.2500
vt 0.9755 0.3455 0.2500
vt 0.9973 0.5523 0.2500
vt 0.9973 0.4477 0.2500
vt 0.9755 0.6545 0.2500
vt 0.9330 0.7500 0.2500
vt 0.8716 0.8346 0.2500
vt 0.7034 0.9568 0.2500
vt 0.5000 1.0000 0.2500
# 122 texture coords

o Cylinder02
g Cylinder02
usemtl wire_008110135
s 8
f 1/1/1 2/2/2 3/3/3 4/4/4 
f 2/2/2 5/5/5 6/6/6 3/3/3 
f 5/5/5 7/7/7 8/8/8 6/6/6 
f 7/7/7 9/9/9 10/10/10 8/8/8 
f 9/9/9 11/11/11 12/12/12 10/10/10 
f 11/11/11 13/13/13 14/14/14 12/12/12 
f 13/13/13 15/15/15 16/16/16 14/14/14 
f 15/15/15 17/17/17 18/18/18 16/16/16 
f 17/19/17 19/20/19 20/21/20 18/22/18 
f 19/20/19 21/23/21 22/24/22 20/21/20 
f 21/23/21 23/25/23 24/26/24 22/24/22 
f 23/25/23 25/27/25 26/28/26 24/26/24 
f 25/27/25 27/29/27 28/30/28 26/28/26 
f 27/29/27 29/31/29 30/32/30 28/30/28 
f 29/31/29 31/33/31 32/34/32 30/32/30 
f 31/33/31 33/35/33 34/36/34 32/34/32 
f 33/35/33 35/37/35 36/38/36 34/36/34 
f 35/37/35 37/39/37 38/40/38 36/38/36 
f 37/39/37 39/41/39 40/42/40 38/40/38 
f 39/41/39 41/43/41 42/44/42 40/42/40 
f 41/43/41 43/45/43 44/46/44 42/44/42 
f 43/45/43 45/47/45 46/48/46 44/46/44 
f 45/47/45 47/49/47 48/50/48 46/48/46 
f 47/49/47 49/51/49 50/52/50 48/50/48 
f 49/51/49 51/53/51 52/54/52 50/52/50 
f 51/53/51 53/55/53 54/56/54 52/54/52 
f 53/55/53 55/57/55 56/58/56 54/56/54 
f 55/57/55 57/59/57 58/60/58 56/58/56 
f 57/59/57 59/61/59 60/62/60 58/60/58 
f 59/61/59 1/1/1 4/4/4 60/62/60 
s 1
f 57/63/57 55/64/55 53/65/53 1/66/1 
f 53/65/53 51/67/51 49/68/49 45/69/45 
f 49/68/49 47/70/47 45/69/45 
f 45/69/45 43/71/43 41/72/41 37/73/37 
f 41/72/41 39/74/39 37/73/37 
f 53/65/53 45/69/45 37/73/37 5/75/5 
f 37/73/37 35/76/35 33/77/33 29/78/29 
f 33/77/33 31/79/31 29/78/29 
f 29/78/29 27/80/27 25/81/25 21/82/21 
f 25/81/25 23/83/23 21/82/21 
f 37/73/37 29/78/29 21/82/21 5/75/5 
f 21/82/21 19/84/19 17/85/17 13/86/13 
f 17/85/17 15/87/15 13/86/13 
f 13/86/13 11/88/11 9/89/9 5/75/5 
f 9/89/9 7/90/7 5/75/5 
f 21/82/21 13/86/13 5/75/5 
f 5/75/5 2/91/2 1/66/1 53/65/53 
f 59/92/59 57/63/57 1/66/1 
f 3/93/3 6/94/6 8/95/8 60/96/60 
f 8/95/8 10/97/10 12/98/12 16/99/16 
f 12/98/12 14/100/14 16/99/16 
f 16/99/16 18/101/18 20/102/20 24/103/24 
f 20/102/20 22/104/22 24/103/24 
f 8/95/8 16/99/16 24/103/24 56/105/56 
f 24/103/24 26/106/26 28/107/28 32/108/32 
f 28/107/28 30/109/30 32/108/32 
f 32/108/32 34/110/34 36/111/36 40/112/40 
f 36/111/36 38/113/38 40/112/40 
f 24/103/24 32/108/32 40/112/40 56/105/56 
f 40/112/40 42/114/42 44/115/44 48/116/48 
f 44/115/44 46/117/46 48/116/48 
f 48/116/48 50/118/50 52/119/52 56/105/56 
f 52/119/52 54/120/54 56/105/56 
f 40/112/40 48/116/48 56/105/56 
f 56/105/56 58/121/58 60/96/60 8/95/8 
f 4/122/4 3/93/3 60/96/60 
# 50 polygons - 16 triangles

#
# object Cylinder01
#

v  -0.0000 515.0000 0.0000
v  264.9282 515.0000 117.9537
v  283.6628 515.0000 60.2944
v  290.0000 515.0000 0.0000
v  194.0479 515.0000 215.5120
v  234.6149 515.0000 170.4577
v  89.6149 515.0000 275.8064
v  145.0000 515.0000 251.1474
v  -30.3133 515.0000 288.4114
v  30.3132 515.0000 288.4114
v  -145.0000 515.0000 251.1474
v  -89.6149 515.0000 275.8064
v  -234.6149 515.0000 170.4577
v  -194.0479 515.0000 215.5120
v  -283.6628 515.0000 60.2944
v  -264.9282 515.0000 117.9536
v  -283.6628 515.0000 -60.2944
v  -290.0000 515.0000 0.0000
v  -234.6149 515.0000 -170.4577
v  -264.9282 515.0000 -117.9536
v  -145.0000 515.0000 -251.1474
v  -194.0479 515.0000 -215.5120
v  -30.3134 515.0000 -288.4113
v  -89.6150 515.0000 -275.8063
v  89.6147 515.0000 -275.8064
v  30.3131 515.0000 -288.4113
v  194.0476 515.0000 -215.5122
v  144.9997 515.0000 -251.1475
v  264.9280 515.0000 -117.9541
v  234.6147 515.0000 -170.4581
v  283.6627 515.0000 -60.2949
v  283.6628 500.0000 60.2944
v  290.0000 500.0000 0.0000
v  264.9282 500.0000 117.9537
v  234.6149 500.0000 170.4577
v  194.0479 500.0000 215.5120
v  145.0000 500.0000 251.1474
v  89.6149 500.0000 275.8064
v  30.3132 500.0000 288.4114
v  -30.3133 500.0000 288.4114
v  -89.6149 500.0000 275.8064
v  -145.0000 500.0000 251.1474
v  -194.0479 500.0000 215.5120
v  -234.6149 500.0000 170.4577
v  -264.9282 500.0000 117.9536
v  -283.6628 500.0000 60.2944
v  -290.0000 500.0000 0.0000
v  -283.6628 500.0000 -60.2944
v  -264.9282 500.0000 -117.9536
v  -234.6149 500.0000 -170.4577
v  -194.0479 500.0000 -215.5120
v  -145.0000 500.0000 -251.1474
v  -89.6150 500.0000 -275.8063
v  -30.3134 500.0000 -288.4113
v  30.3131 500.0000 -288.4113
v  89.6147 500.0000 -275.8064
v  144.9997 500.0000 -251.1475
v  194.0476 500.0000 -215.5122
v  234.6147 500.0000 -170.4581
v  264.9280 500.0000 -117.9541
v  283.6627 500.0000 -60.2949
v  -0.0000 500.0000 0.0000
# 62 vertices

vn 0.0000 1.0000 -0.0000
vn 0.6661 0.6844 0.2966
vn 0.7132 0.6844 0.1516
vn 0.7291 0.6844 0.0000
vn 0.4879 0.6843 0.5419
vn 0.5899 0.6843 0.4286
vn 0.2253 0.6843 0.6935
vn 0.3646 0.6843 0.6315
vn -0.0762 0.6843 0.7252
vn 0.0762 0.6843 0.7252
vn -0.3646 0.6844 0.6315
vn -0.2253 0.6844 0.6935
vn -0.5899 0.6843 0.4286
vn -0.4879 0.6843 0.5419
vn -0.7132 0.6843 0.1516
vn -0.6661 0.6843 0.2966
vn -0.7132 0.6843 -0.1516
vn -0.7292 0.6843 -0.0000
vn -0.5899 0.6844 -0.4286
vn -0.6661 0.6843 -0.2966
vn -0.3646 0.6843 -0.6315
vn -0.4879 0.6844 -0.5419
vn -0.0762 0.6843 -0.7252
vn -0.2253 0.6843 -0.6935
vn 0.2253 0.6843 -0.6935
vn 0.0762 0.6843 -0.7252
vn 0.4879 0.6843 -0.5419
vn 0.3646 0.6843 -0.6315
vn 0.6661 0.6843 -0.2966
vn 0.5899 0.6843 -0.4286
vn 0.7132 0.6844 -0.1516
vn 0.7132 -0.6844 0.1516
vn 0.7291 -0.6844 0.0000
vn 0.6661 -0.6844 0.2966
vn 0.5899 -0.6843 0.4286
vn 0.4879 -0.6843 0.5419
vn 0.3646 -0.6843 0.6315
vn 0.2253 -0.6843 0.6935
vn 0.0762 -0.6843 0.7252
vn -0.0762 -0.6843 0.7252
vn -0.2253 -0.6844 0.6935
vn -0.3646 -0.6844 0.6315
vn -0.4879 -0.6843 0.5419
vn -0.5899 -0.6843 0.4286
vn -0.6661 -0.6843 0.2966
vn -0.7132 -0.6843 0.1516
vn -0.7292 -0.6843 -0.0000
vn -0.7132 -0.6843 -0.1516
vn -0.6661 -0.6843 -0.2966
vn -0.5899 -0.6844 -0.4286
vn -0.4879 -0.6844 -0.5419
vn -0.3646 -0.6843 -0.6315
vn -0.2253 -0.6843 -0.6935
vn -0.0762 -0.6843 -0.7252
vn 0.0762 -0.6843 -0.7252
vn 0.2253 -0.6843 -0.6935
vn 0.3646 -0.6843 -0.6315
vn 0.4879 -0.6843 -0.5419
vn 0.5899 -0.6843 -0.4286
vn 0.6661 -0.6843 -0.2966
vn 0.7132 -0.6844 -0.1516
vn 0.0000 -1.0000 -0.0000
# 62 vertex normals

vt 0.5000 0.0000 0.0000
vt 0.6833 0.0000 1.0000
vt 0.7167 0.0000 1.0000
vt 0.7500 0.0000 1.0000
vt 0.6167 0.0000 1.0000
vt 0.6500 0.0000 1.0000
vt 0.5500 0.0000 1.0000
vt 0.5833 0.0000 1.0000
vt 0.4833 0.0000 1.0000
vt 0.5167 0.0000 1.0000
vt 0.4167 0.0000 1.0000
vt 0.4500 0.0000 1.0000
vt 0.3500 0.0000 1.0000
vt 0.3833 0.0000 1.0000
vt 0.2833 0.0000 1.0000
vt 0.3167 0.0000 1.0000
vt 0.2167 0.0000 1.0000
vt 0.2500 0.0000 1.0000
vt 0.1500 0.0000 1.0000
vt 0.1833 0.0000 1.0000
vt 0.0833 0.0000 1.0000
vt 0.1167 0.0000 1.0000
vt 0.0167 0.0000 1.0000
vt 0.0500 0.0000 1.0000
vt -0.0274 0.0000 0.9563
vt -0.0167 0.0000 1.0000
vt 0.8833 0.0000 1.0000
vt 0.9167 0.0000 1.0000
vt 0.9500 0.0000 1.0000
vt 0.8167 0.0000 1.0000
vt 0.8500 0.0000 1.0000
vt 0.7833 0.0000 1.0000
vt 0.7167 1.0000 1.0000
vt 0.7500 1.0000 1.0000
vt 0.6833 1.0000 1.0000
vt 0.6500 1.0000 1.0000
vt 0.6167 1.0000 1.0000
vt 0.5833 1.0000 1.0000
vt 0.5500 1.0000 1.0000
vt 0.5167 1.0000 1.0000
vt 0.4833 1.0000 1.0000
vt 0.4500 1.0000 1.0000
vt 0.4167 1.0000 1.0000
vt 0.3833 1.0000 1.0000
vt 0.3500 1.0000 1.0000
vt 0.3167 1.0000 1.0000
vt 0.2833 1.0000 1.0000
vt 0.2500 1.0000 1.0000
vt 0.2167 1.0000 1.0000
vt 0.1833 1.0000 1.0000
vt 0.1500 1.0000 1.0000
vt 0.1167 1.0000 1.0000
vt 0.0833 1.0000 1.0000
vt 0.0500 1.0000 1.0000
vt 0.0167 1.0000 1.0000
vt -0.0167 1.0000 1.0000
vt 0.9833 0.0000 1.0000
vt 0.9500 1.0000 1.0000
vt 0.9833 1.0000 1.0000
vt 0.9167 1.0000 1.0000
vt 0.8833 1.0000 1.0000
vt 0.8500 1.0000 1.0000
vt 0.8167 1.0000 1.0000
vt 0.7833 1.0000 1.0000
vt 0.5000 1.0000 0.0000
# 65 texture coords

o Cylinder01
g Cylinder01
usemtl wire_008110135
s 1
f 61/123/61 62/124/62 63/125/63 64/126/64 
f 61/123/61 65/127/65 66/128/66 62/124/62 
f 61/123/61 67/129/67 68/130/68 65/127/65 
f 61/123/61 69/131/69 70/132/70 67/129/67 
f 61/123/61 71/133/71 72/134/72 69/131/69 
f 61/123/61 73/135/73 74/136/74 71/133/71 
f 61/123/61 75/137/75 76/138/76 73/135/73 
f 61/123/61 77/139/77 78/140/78 75/137/75 
f 61/123/61 79/141/79 80/142/80 77/139/77 
f 61/123/61 81/143/81 82/144/82 79/141/79 
f 61/123/61 83/145/83 84/146/84 81/143/81 
f 61/123/61 85/147/85 86/148/86 83/145/83 
f 61/123/61 87/149/87 88/150/88 85/151/85 
f 61/123/61 89/152/89 90/153/90 87/149/87 
f 61/123/61 64/126/64 91/154/91 89/152/89 
s 8
f 64/126/64 63/125/63 92/155/92 93/156/93 
f 63/125/63 62/124/62 94/157/94 92/155/92 
f 62/124/62 66/128/66 95/158/95 94/157/94 
f 66/128/66 65/127/65 96/159/96 95/158/95 
f 65/127/65 68/130/68 97/160/97 96/159/96 
f 68/130/68 67/129/67 98/161/98 97/160/97 
f 67/129/67 70/132/70 99/162/99 98/161/98 
f 70/132/70 69/131/69 100/163/100 99/162/99 
f 69/131/69 72/134/72 101/164/101 100/163/100 
f 72/134/72 71/133/71 102/165/102 101/164/101 
f 71/133/71 74/136/74 103/166/103 102/165/102 
f 74/136/74 73/135/73 104/167/104 103/166/103 
f 73/135/73 76/138/76 105/168/105 104/167/104 
f 76/138/76 75/137/75 106/169/106 105/168/105 
f 75/137/75 78/140/78 107/170/107 106/169/106 
f 78/140/78 77/139/77 108/171/108 107/170/107 
f 77/139/77 80/142/80 109/172/109 108/171/108 
f 80/142/80 79/141/79 110/173/110 109/172/109 
f 79/141/79 82/144/82 111/174/111 110/173/110 
f 82/144/82 81/143/81 112/175/112 111/174/111 
f 81/143/81 84/146/84 113/176/113 112/175/112 
f 84/146/84 83/145/83 114/177/114 113/176/113 
f 83/145/83 86/148/86 115/178/115 114/177/114 
f 86/179/86 85/151/85 116/180/116 115/181/115 
f 85/151/85 88/150/88 117/182/117 116/180/116 
f 88/150/88 87/149/87 118/183/118 117/182/117 
f 87/149/87 90/153/90 119/184/119 118/183/118 
f 90/153/90 89/152/89 120/185/120 119/184/119 
f 89/152/89 91/154/91 121/186/121 120/185/120 
f 91/154/91 64/126/64 93/156/93 121/186/121 
s 1
f 122/187/122 121/186/121 93/156/93 92/155/92 
f 122/187/122 92/155/92 94/157/94 95/158/95 
f 122/187/122 95/158/95 96/159/96 97/160/97 
f 122/187/122 97/160/97 98/161/98 99/162/99 
f 122/187/122 99/162/99 100/163/100 101/164/101 
f 122/187/122 101/164/101 102/165/102 103/166/103 
f 122/187/122 103/166/103 104/167/104 105/168/105 
f 122/187/122 105/168/105 106/169/106 107/170/107 
f 122/187/122 107/170/107 108/171/108 109/172/109 
f 122/187/122 109/172/109 110/173/110 111/174/111 
f 122/187/122 111/174/111 112/175/112 113/176/113 
f 122/187/122 113/176/113 114/177/114 115/178/115 
f 122/187/122 115/181/115 116/180/116 117/182/117 
f 122/187/122 117/182/117 118/183/118 119/184/119 
f 122/187/122 119/184/119 120/185/120 121/186/121 
# 60 polygons

